---
id: 3229
title: htc desire 500, video settings?
date: 2014-06-20T22:30:21+00:00
author: bronto saurus
layout: post
guid: http://b.pwnz.org/?p=3229
permalink: /2014/06/htc-desire-500-video-settings/
categories:
  - Uncategorized
---
This is what internal video camera captures;

<pre>Video
Format                                   : AVC
Format/Info                              : Advanced Video Codec
Format profile                           : Baseline@L3.1
Format settings, CABAC                   : No
Format settings, ReFrames                : 1 frame
Codec ID                                 : avc1
Codec ID/Info                            : Advanced Video Coding
Duration                                 : 2s 115ms
Source duration                          : 2s 151ms
Bit rate                                 : 1 846 Kbps
Width                                    : 800 pixels
Height                                   : 480 pixels
Display aspect ratio                     : 1.667
Rotation                                 : 90°
Frame rate mode                          : Variable
Frame rate                               : 19.525 fps
Minimum frame rate                       : 11.568 fps
Maximum frame rate                       : 20.225 fps
Color space                              : YUV
Chroma subsampling                       : 4:2:0
Bit depth                                : 8 bits
Scan type                                : Progressive
Bits/(Pixel*Frame)                       : 0.246
Stream size                              : 473 KiB (36%)
Source stream size                       : 485 KiB (37%)
Title                                    : VideoHandle
Language                                 : English
mdhd_Duration                            : 2115

Audio
ID                                       : 2
Format                                   : AAC
Format/Info                              : Advanced Audio Codec
Format profile                           : LC
Codec ID                                 : 40
Duration                                 : 2s 219ms
Bit rate mode                            : Constant
Bit rate                                 : 90.1 Kbps
Nominal bit rate                         : 96.0 Kbps
Channel(s)                               : 2 channels
Channel positions                        : Front: L R
Sampling rate                            : 48.0 KHz
Compression mode                         : Lossy
Stream size                              : 24.4 KiB (2%)
Title                                    : SoundHandle
Language                                 : English
</pre>